<svg id="Layer_1" data-name="Layer 1" xmlns="http://www.w3.org/2000/svg" viewBox="0 0 141.42 141.48"><defs><style>.cls-1{fill:#27aae1;}.cls-2{fill:#1c75bc;}.cls-3{fill:#ef4136;}</style></defs><path class="cls-1" d="M34.41,57H17.15L14.53,68.07H.31L18.05.25h15.6L51.32,68.07H37ZM31,42.57,25.78,20.64,20.6,42.57Z" transform="translate(-0.31 -0.25)"/><path class="cls-1" d="M78.69,68.07,68,43.06H66.35v25h-15V.25H75a20.28,20.28,0,0,1,11,2.84,17.84,17.84,0,0,1,6.83,7.79A26.13,26.13,0,0,1,95.18,22a23.89,23.89,0,0,1-3,12.17,16.82,16.82,0,0,1-8.86,7.46l12.2,26.45ZM66.35,30.17h7.44a5.68,5.68,0,0,0,4.6-1.83,8.06,8.06,0,0,0,1.53-5.29,7.77,7.77,0,0,0-1.57-5.15A5.62,5.62,0,0,0,73.79,16H66.35Z" transform="translate(-0.31 -0.25)"/><path class="cls-1" d="M138.85,39.16a19.18,19.18,0,0,1,2.88,10.44q0,8.65-4.88,13.56t-13.69,4.91H95.71V.25H122.3q8.49,0,13.33,4.62t4.83,13a18.15,18.15,0,0,1-2.54,10,12.85,12.85,0,0,1-6.81,5.43A13.06,13.06,0,0,1,138.85,39.16Zm-27.72-12h7.79c3.87,0,5.82-1.95,5.82-5.86s-1.95-6.06-5.82-6.06h-7.79ZM125.91,46.9a6.6,6.6,0,0,0-1.53-4.71A5.69,5.69,0,0,0,120,40.55h-8.89V52.87h9C124,52.87,125.91,50.88,125.91,46.9Z" transform="translate(-0.31 -0.25)"/><path class="cls-1" d="M17.44,87V98.5H37.1v14.87H17.44v12.69H39.72v15.67H.31V71.34H39.72V87Z" transform="translate(-0.31 -0.25)"/><path class="cls-2" d="M77.06,141.73,68.5,127.65l-6.78,14.08H43.49l15.85-29.06L42.81,85.72H61.46L70,99.79l6.87-14.07H95.12l-16.2,28.55,16.79,27.46Z" transform="translate(-0.31 -0.25)"/><ellipse class="cls-3" cx="115.54" cy="115.12" rx="19.31" ry="19.91"/></svg>