<svg width="994" height="995" xmlns="http://www.w3.org/2000/svg" xmlns:xlink="http://www.w3.org/1999/xlink" overflow="hidden"><defs><clipPath id="clip0"><rect x="1206" y="650" width="994" height="995"/></clipPath></defs><g clip-path="url(#clip0)" transform="translate(-1206 -650)"><path d="M1206 1147.5C1206 872.738 1428.51 650 1703 650 1977.49 650 2200 872.738 2200 1147.5 2200 1422.26 1977.49 1645 1703 1645 1428.51 1645 1206 1422.26 1206 1147.5Z" fill="#002060" fill-rule="evenodd"/><path d="M1353 1148C1353 954.7 1509.7 798 1703 798 1896.3 798 2053 954.7 2053 1148 2053 1341.3 1896.3 1498 1703 1498 1509.7 1498 1353 1341.3 1353 1148Z" fill="#DAE3F3" fill-rule="evenodd"/></g></svg>